<svg xmlns="http://www.w3.org/2000/svg" viewBox="0 0 400 490" role="presentation" focusable="false"><g><rect x="45" y="470" width="310" height="10" fill="#FFA53A"/><rect x="70" y="392" width="260" height="78" fill="#FFA53A"/><path d="M140 470V430A60 60 0 0 1 260 430V470Z" fill="#5A1512"/><rect x="70" y="392" width="260" height="8" fill="#FFCB55"/></g><g><polygon points="55.0,392 345.0,392 332.0,354 68.0,354" fill="#FFA53A"/><rect x="78.0" y="366" width="10" height="20" rx="5" fill="#5A1512"/><rect x="111.4" y="366" width="10" height="20" rx="5" fill="#5A1512"/><rect x="144.9" y="366" width="10" height="20" rx="5" fill="#5A1512"/><rect x="178.3" y="366" width="10" height="20" rx="5" fill="#5A1512"/><rect x="211.7" y="366" width="10" height="20" rx="5" fill="#5A1512"/><rect x="245.1" y="366" width="10" height="20" rx="5" fill="#5A1512"/><rect x="278.6" y="366" width="10" height="20" rx="5" fill="#5A1512"/><rect x="312.0" y="366" width="10" height="20" rx="5" fill="#5A1512"/><rect x="49.0" y="388" width="302" height="8" rx="2" fill="#FFCB55"/></g><g><polygon points="72.0,346 328.0,346 315.0,308 85.0,308" fill="#FFA53A"/><rect x="95.0" y="320" width="10" height="20" rx="5" fill="#5A1512"/><rect x="128.3" y="320" width="10" height="20" rx="5" fill="#5A1512"/><rect x="161.7" y="320" width="10" height="20" rx="5" fill="#5A1512"/><rect x="195.0" y="320" width="10" height="20" rx="5" fill="#5A1512"/><rect x="228.3" y="320" width="10" height="20" rx="5" fill="#5A1512"/><rect x="261.7" y="320" width="10" height="20" rx="5" fill="#5A1512"/><rect x="295.0" y="320" width="10" height="20" rx="5" fill="#5A1512"/><rect x="66.0" y="342" width="268" height="8" rx="2" fill="#FFCB55"/></g><g><polygon points="89.0,300 311.0,300 298.0,262 102.0,262" fill="#FFA53A"/><rect x="112.0" y="274" width="10" height="20" rx="5" fill="#5A1512"/><rect x="145.2" y="274" width="10" height="20" rx="5" fill="#5A1512"/><rect x="178.4" y="274" width="10" height="20" rx="5" fill="#5A1512"/><rect x="211.6" y="274" width="10" height="20" rx="5" fill="#5A1512"/><rect x="244.8" y="274" width="10" height="20" rx="5" fill="#5A1512"/><rect x="278.0" y="274" width="10" height="20" rx="5" fill="#5A1512"/><rect x="83.0" y="296" width="234" height="8" rx="2" fill="#FFCB55"/></g><g><polygon points="105.0,254 295.0,254 282.0,216 118.0,216" fill="#FFA53A"/><rect x="128.0" y="228" width="10" height="20" rx="5" fill="#5A1512"/><rect x="161.5" y="228" width="10" height="20" rx="5" fill="#5A1512"/><rect x="195.0" y="228" width="10" height="20" rx="5" fill="#5A1512"/><rect x="228.5" y="228" width="10" height="20" rx="5" fill="#5A1512"/><rect x="262.0" y="228" width="10" height="20" rx="5" fill="#5A1512"/><rect x="99.0" y="250" width="202" height="8" rx="2" fill="#FFCB55"/></g><g><polygon points="121.0,208 279.0,208 266.0,170 134.0,170" fill="#FFA53A"/><rect x="144.0" y="182" width="10" height="20" rx="5" fill="#5A1512"/><rect x="178.0" y="182" width="10" height="20" rx="5" fill="#5A1512"/><rect x="212.0" y="182" width="10" height="20" rx="5" fill="#5A1512"/><rect x="246.0" y="182" width="10" height="20" rx="5" fill="#5A1512"/><rect x="115.0" y="204" width="170" height="8" rx="2" fill="#FFCB55"/></g><g><polygon points="136.0,162 264.0,162 251.0,124 149.0,124" fill="#FFA53A"/><rect x="159.0" y="136" width="10" height="20" rx="5" fill="#5A1512"/><rect x="195.0" y="136" width="10" height="20" rx="5" fill="#5A1512"/><rect x="231.0" y="136" width="10" height="20" rx="5" fill="#5A1512"/><rect x="130.0" y="158" width="140" height="8" rx="2" fill="#FFCB55"/></g><g><path d="M142 124 A58 44 0 0 1 258 124Z" fill="#FFA53A"/><rect x="136" y="120" width="128" height="8" rx="2" fill="#FFCB55"/><rect x="166" y="58" width="4" height="24" fill="#FFCB55"/><circle cx="168" cy="54" r="7" fill="#FFCB55"/><rect x="198" y="58" width="4" height="24" fill="#FFCB55"/><circle cx="200" cy="54" r="7" fill="#FFCB55"/><rect x="230" y="58" width="4" height="24" fill="#FFCB55"/><circle cx="232" cy="54" r="7" fill="#FFCB55"/></g></svg>